<svg xmlns="http://www.w3.org/2000/svg" viewBox="0 0 47.85 36.39"><defs><style>.cls-1{fill:#b8c2cc;}</style></defs><g id="Слой_2" data-name="Слой 2"><g id="Слой_1-2" data-name="Слой 1"><path class="cls-1" d="M43.37,4.48A15.24,15.24,0,0,0,32.56,0H15.29A15.3,15.3,0,0,0,0,15.28V19.6A35.19,35.19,0,0,0,3.39,34.66,3,3,0,0,0,6.1,36.39h.05a3,3,0,0,0,2.23-1l4.66-5A14.12,14.12,0,0,1,23.37,26h1.11a14.12,14.12,0,0,1,10.33,4.48l4.66,5a3,3,0,0,0,2.23,1h0a3,3,0,0,0,2.71-1.73A35.19,35.19,0,0,0,47.85,19.6V15.28A15.2,15.2,0,0,0,43.37,4.48ZM21,17a2.66,2.66,0,0,1-1.9.79h-2v2a2.7,2.7,0,0,1-5.39,0v-2h-2a2.69,2.69,0,1,1,0-5.38h2v-2a2.7,2.7,0,0,1,2.7-2.7,2.7,2.7,0,0,1,2.69,2.7v2h2a2.68,2.68,0,0,1,2.69,2.69A2.64,2.64,0,0,1,21,17ZM35.24,20.9a5.85,5.85,0,1,1,5.84-5.85A5.85,5.85,0,0,1,35.24,20.9Z"/></g></g></svg>