<svg xmlns="http://www.w3.org/2000/svg" viewBox="0 0 50.28 42.2"><defs><style>.cls-1{fill:#b8c2cc;}</style></defs><g id="Слой_2" data-name="Слой 2"><g id="Слой_1-2" data-name="Слой 1"><path class="cls-1" d="M24.92,8.41V9a10.33,10.33,0,0,1-1.27,5l-.4.72a13.55,13.55,0,0,1-4.18,4.63l-.83.57a3,3,0,0,1-3.4,0l-.76-.53a13.75,13.75,0,0,1-4.24-4.67l-.4-.72A10.33,10.33,0,0,1,8.17,9a9.36,9.36,0,0,1,2.32-6.33,8,8,0,0,1,6-2.62,8.43,8.43,0,0,1,8.41,8.41Z"/><path class="cls-1" d="M33.2,37.07V40.2a2,2,0,0,1-2,2H2a2,2,0,0,1-2-2V37.07a11,11,0,0,1,11-11H22.2a11,11,0,0,1,11,11Z"/><path class="cls-1" d="M44.3,8.41V9a10.33,10.33,0,0,1-1.27,5l-.4.72a13.55,13.55,0,0,1-4.18,4.63l-.83.57a3,3,0,0,1-3.41,0l-.76-.53a13.83,13.83,0,0,1-4.23-4.67l-.4-.72a10.33,10.33,0,0,1-1.27-5,9.36,9.36,0,0,1,2.32-6.33,8,8,0,0,1,6-2.62A8.43,8.43,0,0,1,44.3,8.41Z"/><path class="cls-1" d="M50.28,37.07V40.2a2,2,0,0,1-2,2H36.93a2,2,0,0,0,2-2V37.07a11,11,0,0,0-10.85-11h11.2A11,11,0,0,1,50.28,37.07Z"/></g></g></svg>