<svg xmlns="http://www.w3.org/2000/svg" viewBox="0 0 48.17 47.68"><defs><style>.cls-1{fill:#1d3e89;}</style></defs><g id="Слой_2" data-name="Слой 2"><g id="Слой_1-2" data-name="Слой 1"><path class="cls-1" d="M47.53,24.1a8.31,8.31,0,0,0-1.84-2.75L26.23,1.89A6.3,6.3,0,0,0,21.82.05L8.21,0A7.54,7.54,0,0,0,.64,7.17L0,19.52a6.24,6.24,0,0,0,1.83,4.75L23.41,45.84a6.26,6.26,0,0,0,8.87,0L46.34,31.78a6.28,6.28,0,0,0,1.83-4.43A8.52,8.52,0,0,0,47.53,24.1ZM12.25,16.84a4.47,4.47,0,1,1,4.47-4.47A4.47,4.47,0,0,1,12.25,16.84Z"/></g></g></svg>