<svg xmlns="http://www.w3.org/2000/svg" viewBox="0 0 41.92 52.86"><defs><style>.cls-1{fill:#1d3e89;}</style></defs><g id="Слой_2" data-name="Слой 2"><g id="Слой_1-2" data-name="Слой 1"><path class="cls-1" d="M38.15,45H3.78a3.83,3.83,0,0,1-2.67-6.52,12.35,12.35,0,0,0,2.73-4.13,12.74,12.74,0,0,0,1-4.87v-11a12.1,12.1,0,0,1,12-12.17V4.19A4.17,4.17,0,0,1,21,0h0a4.17,4.17,0,0,1,4.12,4.19V6.31a12.1,12.1,0,0,1,12,12.17v11a12.81,12.81,0,0,0,3.69,9A3.83,3.83,0,0,1,38.15,45Z"/><path class="cls-1" d="M15.94,46.9H26a0,0,0,0,1,0,0v.92a5,5,0,0,1-5,5h0a5,5,0,0,1-5-5V46.9A0,0,0,0,1,15.94,46.9Z"/></g></g></svg>