<svg xmlns="http://www.w3.org/2000/svg" viewBox="0 0 54.72 42.86"><defs><style>.cls-1{fill:#1d3e89;}</style></defs><g id="Слой_2" data-name="Слой 2"><g id="Слой_1-2" data-name="Слой 1"><path class="cls-1" d="M53.25,17.72A35.42,35.42,0,0,0,47.31,6.13l-2-2.53A9.22,9.22,0,0,0,39.45.11,9.57,9.57,0,0,0,38,0a9.15,9.15,0,0,0-3.1.54l-.33.12A23.88,23.88,0,0,1,27.36,2,23.94,23.94,0,0,1,20.11.66L19.78.54A9.15,9.15,0,0,0,16.68,0a9.57,9.57,0,0,0-1.41.11A9.22,9.22,0,0,0,9.36,3.6l-2,2.53A35.53,35.53,0,0,0,0,27.86v3.47A23.52,23.52,0,0,0,1.25,38.9a5.84,5.84,0,0,0,8.78,3l7.53-5a18.62,18.62,0,0,1,9.8-3.13,18.59,18.59,0,0,1,9.79,3.13l7.54,5a5.79,5.79,0,0,0,3.25,1,5.84,5.84,0,0,0,5.53-4,23.52,23.52,0,0,0,1.25-7.57V27.86A35.89,35.89,0,0,0,53.25,17.72Zm-32.66,4.5H17.12V25.7a1.8,1.8,0,1,1-3.6,0V22.22H10.05a1.8,1.8,0,1,1,0-3.59h3.47V15.15a1.8,1.8,0,0,1,3.6,0v3.48h3.47a1.8,1.8,0,1,1,0,3.59Zm17.47-8.79a2.83,2.83,0,1,1-2.83,2.83A2.83,2.83,0,0,1,38.06,13.43Zm-5.35,9.79a2.83,2.83,0,1,1,2.83-2.83A2.83,2.83,0,0,1,32.71,23.22Zm5.5,4A2.83,2.83,0,1,1,41,24.36,2.83,2.83,0,0,1,38.21,27.19Zm5.35-4.12a2.83,2.83,0,1,1,2.83-2.83A2.83,2.83,0,0,1,43.56,23.07Z"/></g></g></svg>