<svg xmlns="http://www.w3.org/2000/svg" viewBox="0 0 172.49 174.72"><defs><style>.cls-1{fill:#f59c16;}</style></defs><g id="Слой_2" data-name="Слой 2"><g id="Слой_1-2" data-name="Слой 1"><path class="cls-1" d="M91.16,174.72a128.13,128.13,0,0,1-41.6-6.94l-1-.34A69.06,69.06,0,0,1,5.59,124a108.2,108.2,0,0,1,6.29-83.71A70,70,0,0,1,47.37,7.81a103.58,103.58,0,0,1,77-.76,71.66,71.66,0,0,1,37.42,33.29,91.76,91.76,0,0,1,8,64.9l-1.74,7.05a28.54,28.54,0,0,1-41.66,18.08,26.72,26.72,0,0,1-13.64-23.28V87.51L90.47,107.35,63.14,85.91v38.48H44.53V47.68l45.2,35.44,41.67-37v61a8.09,8.09,0,0,0,4.13,7,9.95,9.95,0,0,0,14.5-6.3l1.74-7A73.31,73.31,0,0,0,145.37,49,53.11,53.11,0,0,0,117.66,24.4,84.94,84.94,0,0,0,54.44,25a51.23,51.23,0,0,0-26,23.82A87.77,87.77,0,0,0,23,117.27a50.85,50.85,0,0,0,31.63,32.57l1,.34a109.57,109.57,0,0,0,59.6,3.27l2-.45,4.09,18.15-2,.45A128.57,128.57,0,0,1,91.16,174.72Z"/></g></g></svg>