<svg xmlns="http://www.w3.org/2000/svg" viewBox="0 0 53.81 48.15"><defs><style>.cls-1{fill:#1d3e89;}</style></defs><g id="Слой_2" data-name="Слой 2"><g id="Слой_1-2" data-name="Слой 1"><path class="cls-1" d="M47.05,0H6.76A6.8,6.8,0,0,0,0,6.84V33.16A6.8,6.8,0,0,0,6.76,40H37.1a6.74,6.74,0,0,1,4.54,1.77l5.92,5.41a3.7,3.7,0,0,0,2.5,1,3.77,3.77,0,0,0,3.75-3.79V6.84A6.8,6.8,0,0,0,47.05,0ZM13.69,24.83a4.08,4.08,0,1,1,4-4.08A4.05,4.05,0,0,1,13.69,24.83Zm13.13,0a4.08,4.08,0,1,1,4-4.08A4,4,0,0,1,26.82,24.83Zm12.41,0a4.08,4.08,0,1,1,4-4.08A4.05,4.05,0,0,1,39.23,24.83Z"/></g></g></svg>