<svg xmlns="http://www.w3.org/2000/svg" viewBox="0 0 54.15 50.49"><defs><style>.cls-1{fill:#1d3e89;}</style></defs><g id="Слой_2" data-name="Слой 2"><g id="Слой_1-2" data-name="Слой 1"><path class="cls-1" d="M49.15,15.29H19.37a5,5,0,0,0-5,5V39.53a5,5,0,0,0,5,5H41.8a5,5,0,0,1,3.35,1.29l4.38,4a2.77,2.77,0,0,0,4.62-2.06V20.29A5,5,0,0,0,49.15,15.29ZM24.49,33.44a3,3,0,0,1-3-3,2.93,2.93,0,0,1,.26-1.22,3,3,0,0,1,5.44,0,2.93,2.93,0,0,1,.26,1.22A3,3,0,0,1,24.49,33.44Zm9.71,0a3,3,0,0,1-3-3,2.93,2.93,0,0,1,.26-1.22,3,3,0,0,1,5.23-.38,2.92,2.92,0,0,1,.47,1.6A3,3,0,0,1,34.2,33.44Zm9.17,0a3,3,0,1,1,3-3A3,3,0,0,1,43.37,33.44Z"/><path class="cls-1" d="M39.78,5V9.18H13.26a5,5,0,0,0-4.95,4.31h0a5.06,5.06,0,0,0-.05.68v17L4.62,34.49A2.77,2.77,0,0,1,0,32.43V5A5,5,0,0,1,5,0H34.78A5,5,0,0,1,39.78,5Z"/></g></g></svg>