<svg xmlns="http://www.w3.org/2000/svg" viewBox="0 0 51.36 52.03"><defs><style>.cls-1{fill:#b8c2cc;}</style></defs><g id="Слой_2" data-name="Слой 2"><g id="Слой_1-2" data-name="Слой 1"><path class="cls-1" d="M27.15,52A38.3,38.3,0,0,1,14.76,50l-.3-.1a20.6,20.6,0,0,1-12.8-13A32.23,32.23,0,0,1,3.54,12,20.75,20.75,0,0,1,14.11,2.33,30.81,30.81,0,0,1,37,2.1,21.35,21.35,0,0,1,48.18,12a27.32,27.32,0,0,1,2.39,19.33l-.52,2.1a8.49,8.49,0,0,1-12.4,5.38,7.94,7.94,0,0,1-4.06-6.93V26.06L26.94,32,18.8,25.58V37H13.26V14.2L26.72,24.75l12.41-11V31.89A2.41,2.41,0,0,0,40.36,34a3,3,0,0,0,4.32-1.88l.51-2.1a21.82,21.82,0,0,0-1.9-15.41A15.82,15.82,0,0,0,35,7.27a25.28,25.28,0,0,0-18.83.18,15.27,15.27,0,0,0-7.75,7.09A26.14,26.14,0,0,0,6.84,34.92a15.15,15.15,0,0,0,9.41,9.7l.31.1a32.55,32.55,0,0,0,17.74,1l.6-.13L36.12,51l-.6.14A38.21,38.21,0,0,1,27.15,52Z"/></g></g></svg>