<svg xmlns="http://www.w3.org/2000/svg" viewBox="0 0 47.01 47.52"><defs><style>.cls-1{fill:#b8c2cc;}</style></defs><g id="Слой_2" data-name="Слой 2"><g id="Слой_1-2" data-name="Слой 1"><path class="cls-1" d="M47,3V38.34l-.08-.05v.05c0,3.55-4.26,6.42-9.51,6.42s-9.52-2.87-9.52-6.42c0-3.34,3.78-6.08,8.61-6.39a5.63,5.63,0,0,0,2-.55h0a5.91,5.91,0,0,0,3.13-3.5,3.05,3.05,0,0,0,.17-.88V13.92a1,1,0,0,0-1.22-1L19.81,17.68a1,1,0,0,0-.77,1V41.1c0,3.54-4.26,6.42-9.52,6.42S0,44.64,0,41.1c0-3,3-5.51,7.13-6.22a16.69,16.69,0,0,0,5.24-1.79h0a3,3,0,0,0,1.55-2.62V8.26a3,3,0,0,1,2.42-2.95L43.44.06A3,3,0,0,1,47,3Z"/></g></g></svg>