<svg xmlns="http://www.w3.org/2000/svg" viewBox="0 0 51.21 51.13"><defs><style>.cls-1{fill:#b8c2cc;}</style></defs><g id="Слой_2" data-name="Слой 2"><g id="Слой_1-2" data-name="Слой 1"><path class="cls-1" d="M44.23,1.87l-4-1.5a3,3,0,0,0-2,0L33.3,2a3.09,3.09,0,0,1-1.88,0L26.3.3a3,3,0,0,0-1.86,0L19.24,2a3,3,0,0,1-1.89,0L12.68.38a3,3,0,0,0-2,0L6.76,1.85a3,3,0,0,1-2.1,0L0,.09v51H51.21V0L46.35,1.86A2.93,2.93,0,0,1,44.23,1.87ZM43.11,16.58h0a2.91,2.91,0,0,1-2.91,2.91H25a2.9,2.9,0,0,1-2.9-2.91h0a2.9,2.9,0,0,1,2.9-2.9H40.2A2.9,2.9,0,0,1,43.11,16.58ZM22,19.49h0v0Zm-4.6-2.91h0a2.91,2.91,0,0,1-2.91,2.91H11a2.9,2.9,0,0,1-2.9-2.91h0a2.9,2.9,0,0,1,2.9-2.9h3.51A2.9,2.9,0,0,1,17.42,16.58ZM40.36,42.12H10.84a2.9,2.9,0,0,1-2.9-2.91v-.46a2.9,2.9,0,0,1,2.9-2.9H40.36a2.9,2.9,0,0,1,2.91,2.9v.46A2.91,2.91,0,0,1,40.36,42.12Zm0-11H10.84a2.9,2.9,0,0,1-2.9-2.91v-.46a2.9,2.9,0,0,1,2.9-2.9H40.36a2.9,2.9,0,0,1,2.91,2.9v.46A2.91,2.91,0,0,1,40.36,31.11Z"/></g></g></svg>