<svg xmlns="http://www.w3.org/2000/svg" viewBox="0 0 51.25 51.25"><defs><style>.cls-1{fill:#b8c2cc;}</style></defs><g id="Слой_2" data-name="Слой 2"><g id="Слой_1-2" data-name="Слой 1"><path class="cls-1" d="M45.25,0H6A6,6,0,0,0,0,6V45.25a6,6,0,0,0,6,6H45.25a6,6,0,0,0,6-6V6A6,6,0,0,0,45.25,0ZM15.48,8.37a4.7,4.7,0,1,1-4.7,4.7A4.7,4.7,0,0,1,15.48,8.37ZM42.56,42.53H8.38A2,2,0,0,1,7,39.12L17.28,28.81a2,2,0,0,1,2.82,0L22.32,31a2,2,0,0,0,2.82,0l7-7a2,2,0,0,1,3,.24L45,37.77A3,3,0,0,1,42.56,42.53Z"/></g></g></svg>