<svg xmlns="http://www.w3.org/2000/svg" viewBox="0 0 66.19 66.19"><defs><style>.cls-1{fill:#b8c2cc;}</style></defs><g id="Слой_2" data-name="Слой 2"><g id="Слой_1-2" data-name="Слой 1"><path class="cls-1" d="M59.66,29.27A26.6,26.6,0,0,0,54.58,17l4.62-4.62L53.79,7l-4.62,4.62A26.67,26.67,0,0,0,36.92,6.53V0H29.27V6.53A26.6,26.6,0,0,0,17,11.61L12.39,7,7,12.39,11.61,17A26.6,26.6,0,0,0,6.53,29.27H0v7.65H6.53a26.57,26.57,0,0,0,5.08,12.25L7,53.79l5.4,5.41L17,54.58a26.6,26.6,0,0,0,12.26,5.08v6.53h7.65V59.66a26.67,26.67,0,0,0,12.25-5.08l4.62,4.62,5.41-5.41-4.62-4.62a26.57,26.57,0,0,0,5.08-12.25h6.53V29.27Zm-7.49,7.39a19,19,0,0,1-3.07,7.4,19.17,19.17,0,0,1-5,5,19,19,0,0,1-7.4,3.07,18.31,18.31,0,0,1-3.57.34,19.34,19.34,0,0,1-11-3.41,19.29,19.29,0,0,1-5-5A19,19,0,0,1,14,36.66a18.31,18.31,0,0,1-.34-3.57,19.34,19.34,0,0,1,3.41-11,19.4,19.4,0,0,1,5-5,19.34,19.34,0,0,1,11-3.41,18.31,18.31,0,0,1,3.57.34,19,19,0,0,1,7.4,3.07,19.42,19.42,0,0,1,8.12,12.44,19.09,19.09,0,0,1,.33,3.56A18.31,18.31,0,0,1,52.17,36.66Z"/></g></g></svg>