<svg xmlns="http://www.w3.org/2000/svg" viewBox="0 0 339.36 339.36"><defs><style>.cls-1{fill:#f0f0f0;}.cls-2{fill:#5e5d5e;}</style></defs><g id="Слой_2" data-name="Слой 2"><g id="Слой_1-2" data-name="Слой 1"><circle class="cls-1" cx="169.68" cy="169.68" r="169.68"/><path class="cls-2" d="M169.68,88.89a52.72,52.72,0,0,0-52.25,59.36h0c.58,2.76,1.15,5.5,1.73,8.25a2,2,0,0,1,0,.24,128.92,128.92,0,0,0,17.9,43.51l32.44,50.22,32.27-49.53A129.06,129.06,0,0,0,220,155.88l2.24-11.34c.06-1,.09-2,.09-3A52.68,52.68,0,0,0,169.68,88.89Zm0,76.76a25.5,25.5,0,1,1,25.5-25.49A25.49,25.49,0,0,1,169.68,165.65Z"/></g></g></svg>