<svg xmlns="http://www.w3.org/2000/svg" viewBox="0 0 339.36 339.36"><defs><style>.cls-1{fill:#f0f0f0;}.cls-2{fill:#5e5d5e;}</style></defs><g id="Слой_2" data-name="Слой 2"><g id="Слой_1-2" data-name="Слой 1"><circle class="cls-1" cx="169.68" cy="169.68" r="169.68"/><path class="cls-2" d="M268.75,132.39q0-.52,0-1v-.05c0-.25,0-.5-.05-.76-.06-.75-.15-1.5-.26-2.23-.07-.47-.15-.94-.25-1.41a.76.76,0,0,0,0-.16c-.1-.46-.2-.91-.32-1.36s-.23-.87-.37-1.3a1.09,1.09,0,0,0-.07-.24c-.27-.86-.59-1.71-.93-2.54l-.12-.28c-.17-.38-.34-.77-.53-1.14s-.41-.83-.63-1.24a1.09,1.09,0,0,0-.08-.15c-.22-.39-.44-.78-.67-1.16s-.51-.82-.78-1.22-.54-.77-.82-1.15a.18.18,0,0,0-.05-.07c-.28-.37-.57-.73-.86-1.09s-.62-.73-.95-1.09-.65-.7-1-1-.69-.67-1-1-.72-.64-1.09-1l-1.13-.89c-.39-.29-.78-.57-1.18-.84s-.81-.53-1.22-.78-.74-.44-1.12-.65l-.18-.1c-.78-.42-1.58-.81-2.4-1.16l-.25-.11c-.43-.18-.85-.35-1.29-.5s-.63-.23-1-.33c-.61-.21-1.23-.39-1.85-.55-.4-.11-.8-.2-1.21-.28-.57-.13-1.14-.23-1.72-.32s-1-.14-1.5-.19a28.24,28.24,0,0,0-3.06-.16H179.68V85.8h-20v17.06H100.6a28.24,28.24,0,0,0-3.06.16c-.51,0-1,.11-1.5.19s-1.15.19-1.72.32c-.41.08-.81.17-1.21.28-.63.16-1.24.34-1.85.55q-.49.15-1,.33c-.44.15-.86.32-1.29.5l-.25.11c-.81.35-1.6.73-2.38,1.15l-.33.19c-.31.16-.61.34-.9.52a1.58,1.58,0,0,0-.24.15c-.35.21-.7.43-1,.66l-.09.06c-.35.25-.7.49-1,.75l-.28.21c-.26.2-.52.4-.77.62a2.6,2.6,0,0,0-.32.26c-.31.26-.62.52-.92.8s-.65.61-1,.92a.94.94,0,0,0-.17.18c-.29.29-.57.58-.84.88a.6.6,0,0,0-.11.12c-.25.28-.5.55-.73.84s-.3.34-.43.52a5.45,5.45,0,0,0-.37.47q-.24.3-.45.6l-.48.67c-.1.15-.21.3-.31.46s-.31.47-.45.71-.27.42-.39.64-.17.28-.25.43-.29.51-.42.77-.25.47-.36.72a9.86,9.86,0,0,0-.49,1c-.14.28-.26.57-.38.86s-.28.69-.4,1c0,0,0,0,0,0-.14.35-.26.71-.37,1.07a4.16,4.16,0,0,0-.16.5c-.11.35-.22.71-.31,1.07l-.06.24c-.09.36-.18.71-.25,1.07a3,3,0,0,0-.09.43q-.14.67-.24,1.35c-.08.49-.14,1-.19,1.48a0,0,0,0,0,0,0c-.05.42-.08.84-.1,1.27a1.56,1.56,0,0,0,0,.31l0,.65v91.52a30,30,0,0,0,30,30H238.76a30,30,0,0,0,30-30v-90.7C268.76,132.7,268.76,132.54,268.75,132.39Zm-89.07-9.53h59.08a10.09,10.09,0,0,1,2.14.23c.24,0,.49.12.72.19a4,4,0,0,1,.45.15l.22.08.35.14a8.91,8.91,0,0,1,1.34.69c.12.07.24.14.35.22a10.13,10.13,0,0,1,2,1.76l.25.3A10,10,0,0,1,248,129a4.22,4.22,0,0,1,.18.45,9.34,9.34,0,0,1,.43,1.57c0,.25.09.51.12.76s0,.33,0,.5a10,10,0,0,1-10,9.4H179.68Zm-89,8.9c0-.25.07-.51.12-.76a9.34,9.34,0,0,1,.43-1.57,4.22,4.22,0,0,1,.18-.45,10,10,0,0,1,1.4-2.36l.25-.3a10.13,10.13,0,0,1,2-1.76c.11-.08.23-.15.35-.22a8.91,8.91,0,0,1,1.34-.69l.35-.14.22-.08a4,4,0,0,1,.45-.15c.23-.07.48-.14.72-.19a10.09,10.09,0,0,1,2.14-.23h59.08v18.8H100.6a10,10,0,0,1-10-9.4C90.63,132.09,90.64,131.93,90.66,131.76Zm158.1,91.8a10,10,0,0,1-10,10H100.6a10,10,0,0,1-10-10V159.94a29.63,29.63,0,0,0,10,1.72H238.76a29.63,29.63,0,0,0,10-1.72Z"/><path class="cls-2" d="M70.62,131.66V132l0-.65A2.45,2.45,0,0,0,70.62,131.66Z"/><path class="cls-2" d="M266.44,121.29c.34.83.66,1.68.93,2.54A25.74,25.74,0,0,0,266.44,121.29Z"/><path class="cls-2" d="M268.41,128.3c.11.73.2,1.48.26,2.23C268.62,129.78,268.53,129,268.41,128.3Z"/><path class="cls-2" d="M268.74,131.66c0-.11,0-.21,0-.32q0,.53,0,1v-.73Z"/></g></g></svg>