<svg xmlns="http://www.w3.org/2000/svg" viewBox="0 0 18.95 15.52"><defs><style>.cls-1{fill:#fff;}</style></defs><g id="Слой_2" data-name="Слой 2"><g id="Слой_1-2" data-name="Слой 1"><path class="cls-1" d="M7.33,10.41l-.16.19A9,9,0,0,1,.34,13.72H0v-3H.34A6,6,0,0,0,4.9,8.64l.45-.52Z"/><path class="cls-1" d="M14.22,6.68V4.93A6,6,0,0,0,10.3,7L10,7.34,8,5,8,5a9,9,0,0,1,6.19-3.1V0L19,3.34Z"/><path class="cls-1" d="M14.22,15.52V13.6A9,9,0,0,1,8,10.5l-.39-.45-2-2.29L4.9,6.88A6,6,0,0,0,.34,4.79H0v-3H.34A9,9,0,0,1,7.17,4.91l.48.55,2,2.3.67.78a6,6,0,0,0,3.92,2V8.83L19,12.18Z"/></g></g></svg>