<svg xmlns="http://www.w3.org/2000/svg" viewBox="0 0 18.12 17.58"><defs><style>.cls-1{fill:#fff;}</style></defs><g id="Слой_2" data-name="Слой 2"><g id="Слой_1-2" data-name="Слой 1"><path class="cls-1" d="M18.12,13.83a3.74,3.74,0,0,1-7.48.19L5.93,12a3.69,3.69,0,0,1-2.18.71A3.73,3.73,0,0,1,0,9.41,1.84,1.84,0,0,1,0,9V8.94A3.74,3.74,0,0,1,3.75,5.2a3.68,3.68,0,0,1,2.16.69L10.65,3.4a3.74,3.74,0,1,1,3.72,4.09,3.71,3.71,0,0,1-2.75-1.21L7.46,8.47a3.59,3.59,0,0,1,0,.47,3,3,0,0,1,0,.43l4.24,1.84a3.75,3.75,0,0,1,6.42,2.62Z"/></g></g></svg>