<svg xmlns="http://www.w3.org/2000/svg" viewBox="0 0 20.31 14.23"><defs><style>.cls-1{fill:#f5f5f5;}.cls-2{fill:#fff;}</style></defs><g id="Слой_2" data-name="Слой 2"><g id="Слой_1-2" data-name="Слой 1"><path class="cls-1" d="M11,1V13.23a1,1,0,0,1-1.56.83L5.09,11.17H2a2,2,0,0,1-2-2v-4a2,2,0,0,1,2-2H5.1l4.33-3A1,1,0,0,1,11,1Z"/><path class="cls-1" d="M14.72,12l-1.49-.73-1.49-.73a8,8,0,0,0,.17-6.65l-.08-.19,1.53-.65,1.52-.65.09.19A11.33,11.33,0,0,1,14.72,12Z"/><path class="cls-2" d="M18.9,13.68l-2.71-1.29A11.84,11.84,0,0,0,16,1.91L18.64.49l0,0A14.88,14.88,0,0,1,18.9,13.68Z"/></g></g></svg>