<svg xmlns="http://www.w3.org/2000/svg" viewBox="0 0 339.36 339.36"><defs><style>.cls-1{fill:#f0f0f0;}.cls-2{fill:#5e5d5e;}</style></defs><g id="Слой_2" data-name="Слой 2"><g id="Слой_1-2" data-name="Слой 1"><circle class="cls-1" cx="169.68" cy="169.68" r="169.68"/><path class="cls-2" d="M220.32,272.29H89.5a22.44,22.44,0,0,1-22.43-22.42V119.05A20.34,20.34,0,0,1,87.4,98.71H220.32a20.34,20.34,0,0,1,20.33,20.34V252A20.35,20.35,0,0,1,220.32,272.29Z"/><path class="cls-2" d="M272.29,91.1V248.27a24,24,0,0,1-24,24h-6.49A23.2,23.2,0,0,0,265,249.11V97.58A23.2,23.2,0,0,0,241.78,74.4H90.25A23.17,23.17,0,0,0,67.07,97.58V91.1a24,24,0,0,1,24-24H248.27A24,24,0,0,1,272.29,91.1Z"/></g></g></svg>