<svg xmlns="http://www.w3.org/2000/svg" viewBox="0 0 339.36 339.36"><defs><style>.cls-1{fill:#f0f0f0;}.cls-2{fill:none;stroke:#5e5d5e;stroke-miterlimit:10;stroke-width:20px;}.cls-3{fill:#5e5d5e;}</style></defs><g id="Слой_2" data-name="Слой 2"><g id="Слой_1-2" data-name="Слой 1"><circle class="cls-1" cx="169.68" cy="169.68" r="169.68"/><polyline class="cls-2" points="94.31 250.62 94.31 144.69 131.91 144.69 131.91 250.62"/><polyline class="cls-2" points="150.93 250.62 150.93 194.9 188.54 194.9 188.54 250.62"/><polyline class="cls-2" points="207.45 250.62 207.45 88.74 245.06 88.74 245.06 250.62"/><rect class="cls-3" x="106.46" y="156.15" width="13.3" height="13.3" rx="6"/><rect class="cls-3" x="106.46" y="174.26" width="13.3" height="13.3" rx="6"/><rect class="cls-3" x="106.46" y="191.75" width="13.3" height="13.3" rx="6"/><rect class="cls-3" x="106.46" y="210.72" width="13.3" height="13.3" rx="6"/><rect class="cls-3" x="219.6" y="177.25" width="13.3" height="13.3" rx="6"/><rect class="cls-3" x="219.6" y="195.36" width="13.3" height="13.3" rx="6"/><rect class="cls-3" x="219.6" y="212.85" width="13.3" height="13.3" rx="6"/><rect class="cls-3" x="219.6" y="104.18" width="13.3" height="13.3" rx="6"/><rect class="cls-3" x="219.6" y="122.29" width="13.3" height="13.3" rx="6"/><rect class="cls-3" x="219.6" y="139.78" width="13.3" height="13.3" rx="6"/><rect class="cls-3" x="219.6" y="158.75" width="13.3" height="13.3" rx="6"/><rect class="cls-3" x="163.08" y="207.28" width="13.3" height="13.3" rx="6"/><rect class="cls-3" x="163.08" y="224.77" width="13.3" height="13.3" rx="6"/></g></g></svg>