<svg xmlns="http://www.w3.org/2000/svg" viewBox="0 0 113.12 113.12"><defs><style>.cls-1{fill:#e7e6e6;}.cls-2{fill:#010101;fill-opacity:0.1;fill-rule:evenodd;}</style></defs><g id="Слой_2" data-name="Слой 2"><g id="Слой_1-2" data-name="Слой 1"><rect class="cls-1" width="113.12" height="113.12" rx="2"/><path id="Music" class="cls-2" d="M55.77,62.68a23,23,0,0,0-6.77-1c-9.34,0-16.91,5.3-16.91,11.84S39.66,85.37,49,85.37s16.83-5.24,16.92-11.73V39.48L75,43c2.42,1,4.42,1.74,5.62-1.09s-.59-3.78-2.31-4.77l-14.73-8.5-.44-.26a4.75,4.75,0,0,0-6.54,1.67,4,4,0,0,0-.34.59,4.12,4.12,0,0,0-.52,3Z"/></g></g></svg>