<svg xmlns="http://www.w3.org/2000/svg" viewBox="0 0 339.36 339.36"><defs><style>.cls-1{fill:#f0f0f0;}.cls-2{fill:#5e5d5e;}</style></defs><g id="Слой_2" data-name="Слой 2"><g id="Слой_1-2" data-name="Слой 1"><circle class="cls-1" cx="169.68" cy="169.68" r="169.68"/><path class="cls-2" d="M259,156.88a122.32,122.32,0,0,0-20.5-40l-6.73-8.73a31.83,31.83,0,0,0-20.39-12,33.18,33.18,0,0,0-4.87-.38,31.62,31.62,0,0,0-10.69,1.87L194.7,98a82,82,0,0,1-25,4.76,82.28,82.28,0,0,1-25-4.76l-1.13-.41a31.68,31.68,0,0,0-10.7-1.87,33.39,33.39,0,0,0-4.87.38,31.83,31.83,0,0,0-20.39,12l-6.76,8.73a122.68,122.68,0,0,0-25.54,75v12A81,81,0,0,0,79.59,230a20.13,20.13,0,0,0,30.29,10.25l26-17.42A64.12,64.12,0,0,1,169.68,212a64,64,0,0,1,33.78,10.8l26,17.42a19.9,19.9,0,0,0,11.21,3.42A20.13,20.13,0,0,0,259.78,230a81.23,81.23,0,0,0,4.31-26.12v-12A124.06,124.06,0,0,0,259,156.88Zm-112.7,15.53h-12v12a6.21,6.21,0,0,1-12.42,0v-12H110A6.2,6.2,0,1,1,110,160h12V148a6.21,6.21,0,0,1,12.42,0v12h12a6.2,6.2,0,1,1,0,12.39Zm60.28-30.33a9.77,9.77,0,1,1-9.76,9.76A9.78,9.78,0,0,1,206.6,142.08Zm-18.46,33.78a9.77,9.77,0,1,1,9.77-9.77A9.78,9.78,0,0,1,188.14,175.86Zm19,13.7a9.75,9.75,0,1,1,9.77-9.77A9.76,9.76,0,0,1,207.12,189.56Zm18.46-14.22a9.77,9.77,0,1,1,9.77-9.76A9.77,9.77,0,0,1,225.58,175.34Z"/></g></g></svg>