<svg xmlns="http://www.w3.org/2000/svg" viewBox="0 0 764.22 786.19"><defs><style>.cls-1{fill:#5e5d5e;}</style></defs><g id="Слой_2" data-name="Слой 2"><g id="Слой_1-2" data-name="Слой 1"><path class="cls-1" d="M330.19,428.48V786.19H96.77a50,50,0,0,1-50-50V478.48a50,50,0,0,1,50-50Z"/><path class="cls-1" d="M714.22,266.14H599.4a129,129,0,0,0,106.27-127v-2A128.07,128.07,0,0,0,667.9,46l-8.25-8.26A128.14,128.14,0,0,0,568.47,0h-46A128.1,128.1,0,0,0,431.3,37.77L417.19,51.88a249.78,249.78,0,0,0-35.08,44,249.78,249.78,0,0,0-35.08-44l-14.1-14.11A128.14,128.14,0,0,0,241.75,0h-46a128.14,128.14,0,0,0-91.18,37.77L96.32,46a128.07,128.07,0,0,0-37.77,91.18v2a129,129,0,0,0,106.28,127H50a50,50,0,0,0-50,50v32.08a50,50,0,0,0,50,50H332.94V268.12h46l3.19,0,3.19,0h46v130.1H714.22a50,50,0,0,0,50-50V316.14A50,50,0,0,0,714.22,266.14Zm-526.72-68a59,59,0,0,1-58.95-59v-2a58.56,58.56,0,0,1,17.27-41.69l8.25-8.25A58.58,58.58,0,0,1,195.75,70h46a58.6,58.6,0,0,1,41.68,17.27l14.11,14.11a180.8,180.8,0,0,1,49,91.11q.58,2.81,1.08,5.63Zm229.09,0q.5-2.82,1.08-5.63a180.87,180.87,0,0,1,49-91.11l14.11-14.11A58.6,58.6,0,0,1,522.47,70h46a58.58,58.58,0,0,1,41.68,17.27l8.25,8.25a58.56,58.56,0,0,1,17.27,41.69v2a59,59,0,0,1-58.95,59Z"/><path class="cls-1" d="M717.45,478.48V736.19a50,50,0,0,1-50,50H434V428.48H667.45A50,50,0,0,1,717.45,478.48Z"/></g></g></svg>