<svg xmlns="http://www.w3.org/2000/svg" viewBox="0 0 339.36 339.36"><defs><style>.cls-1{fill:#f0f0f0;}.cls-2{fill:#5e5d5e;}</style></defs><g id="Слой_2" data-name="Слой 2"><g id="Слой_1-2" data-name="Слой 1"><circle class="cls-1" cx="169.68" cy="169.68" r="169.68"/><path class="cls-2" d="M175.16,208.76H162.43q0-13.19,4.51-23a47.83,47.83,0,0,1,11-15.74q6.48-5.91,12.85-11.23A51.19,51.19,0,0,0,201.67,146a31.81,31.81,0,0,0,4.51-16.9A27.15,27.15,0,0,0,196.69,108q-9.49-8.46-25.93-8.45-19.44,0-29.86,11.22t-10.42,30h-13.2q0-23.83,14.13-38.66t39.35-14.81q22.45,0,35.54,11.69t13.08,30a47.58,47.58,0,0,1-3.24,17.94,36.22,36.22,0,0,1-8.22,12.73q-5,4.76-10.65,10t-10.65,9.72a34,34,0,0,0-8.22,12.15A44.08,44.08,0,0,0,175.16,208.76Zm-15,35.19a8.8,8.8,0,1,1,17.6,0,8.88,8.88,0,0,1-2.55,6.37,8.33,8.33,0,0,1-6.25,2.66,8.48,8.48,0,0,1-6.25-2.55A8.75,8.75,0,0,1,160.11,244Z"/></g></g></svg>