<svg xmlns="http://www.w3.org/2000/svg" viewBox="0 0 339.36 339.36"><defs><style>.cls-1{fill:#f0f0f0;}.cls-2{fill:#5e5d5e;}</style></defs><g id="Слой_2" data-name="Слой 2"><g id="Слой_1-2" data-name="Слой 1"><circle class="cls-1" cx="169.68" cy="169.68" r="169.68"/><path class="cls-2" d="M134.88,151l97.17-22.42-4.83-21a15.61,15.61,0,0,0-18.7-11.66l-91.12,21a15.63,15.63,0,0,0-11.69,18.7l3.65,15.75v76.9a15.59,15.59,0,0,0,15.58,15.59h93.53a15.59,15.59,0,0,0,15.58-15.59V151Zm30.4,12.47h26L178.84,177.8H153.53l12.15-14Zm-15.8,0L137,177.8H121.83V163.47Zm49-52.47,12.81-3A6,6,0,0,1,212,108a3.09,3.09,0,0,1,3,2.41l2.06,8.85-26.15,6Zm-40.74,9.42,24.68-5.71L174.88,129l-24.65,5.7Zm-39.9,12.4a3.12,3.12,0,0,1,2.34-3.74l21.47-5-7.57,14.28-14.18,3.27Zm103.71,45H195.33l12.16-14-.41-.33h14.5Z"/></g></g></svg>