<svg xmlns="http://www.w3.org/2000/svg" viewBox="0 0 339.36 339.36"><defs><style>.cls-1{fill:#f0f0f0;}.cls-2{fill:#5e5d5e;}</style></defs><g id="Слой_2" data-name="Слой 2"><g id="Слой_1-2" data-name="Слой 1"><circle class="cls-1" cx="169.68" cy="169.68" r="169.68"/><path class="cls-2" d="M242,105.77V214.56l-.25-.16v.16c0,10.93-13.11,19.76-29.27,19.76s-29.31-8.83-29.31-19.76c0-10.26,11.62-18.72,26.49-19.68a16.65,16.65,0,0,0,6.17-1.69h0a18.17,18.17,0,0,0,9.64-10.77,9.35,9.35,0,0,0,.52-2.71V139.38a3.07,3.07,0,0,0-3.75-3l-64,14.59a3.1,3.1,0,0,0-2.37,3v69.07c0,10.9-13.12,19.77-29.31,19.77S97.32,234,97.32,223.05c0-9.21,9.34-16.93,22-19.13a50.77,50.77,0,0,0,16.12-5.52h0a9.23,9.23,0,0,0,4.78-8.07V122a9.23,9.23,0,0,1,7.45-9.08l83.42-16.16A9.23,9.23,0,0,1,242,105.77Z"/></g></g></svg>