<svg xmlns="http://www.w3.org/2000/svg" viewBox="0 0 339.36 339.36"><defs><style>.cls-1{fill:#f0f0f0;}.cls-2{fill:#5e5d5e;}</style></defs><g id="Слой_2" data-name="Слой 2"><g id="Слой_1-2" data-name="Слой 1"><circle class="cls-1" cx="169.68" cy="169.68" r="169.68"/><polygon class="cls-2" points="179.33 210.48 197.94 264.6 179.02 271.11 169.34 242.93 159.65 271.11 140.73 264.6 159.33 210.51 159.29 192.71 150.23 216.09 131.58 208.86 161.75 131.01 232.64 114.65 237.13 134.14 179.18 147.51 179.33 210.48"/><path class="cls-2" d="M160.77,68.26a29,29,0,1,0,29,29A29,29,0,0,0,160.77,68.26Zm0,37.91a9,9,0,1,1,9-9A9,9,0,0,1,160.77,106.17Z"/></g></g></svg>