<svg xmlns="http://www.w3.org/2000/svg" viewBox="0 0 339.36 339.36"><defs><style>.cls-1{fill:#f0f0f0;}.cls-2{fill:#5e5d5e;}</style></defs><g id="Слой_2" data-name="Слой 2"><g id="Слой_1-2" data-name="Слой 1"><circle class="cls-1" cx="169.68" cy="169.68" r="169.68"/><g id="Слой_2-2" data-name="Слой 2"><g id="Слой_1-2-2" data-name="Слой 1-2"><path class="cls-2" d="M258.51,161.79A110.65,110.65,0,0,1,147.88,272.47h0a107.57,107.57,0,0,1-14.34-.93,110.26,110.26,0,0,0,63.74-31.37,87.92,87.92,0,0,1-27.59,4.37,88.83,88.83,0,0,1,0-177.65h0a61.29,61.29,0,0,1,6.84.25,88.75,88.75,0,0,1,67.78,40.39,109.88,109.88,0,0,1,14.16,51.09C258.51,159.7,258.51,160.74,258.51,161.79Z"/></g></g></g></g></svg>