<svg xmlns="http://www.w3.org/2000/svg" viewBox="0 0 339.36 339.36"><defs><style>.cls-1{fill:#f0f0f0;}.cls-2{fill:#5e5d5e;}</style></defs><g id="Слой_2" data-name="Слой 2"><g id="Слой_1-2" data-name="Слой 1"><circle class="cls-1" cx="169.68" cy="169.68" r="169.68"/><path class="cls-2" d="M238.76,102.86H215.64V85.8h-20v17.06H143.72V85.8h-20v17.06H100.6a30,30,0,0,0-30,30v90.7a30,30,0,0,0,30,30H238.76a30,30,0,0,0,30-30v-90.7A30,30,0,0,0,238.76,102.86Zm10,120.7a10,10,0,0,1-10,10H100.6a10,10,0,0,1-10-10v-90.7a10,10,0,0,1,10-10h23.12v18.28h20V122.86h51.92v18.28h20V122.86h23.12a10,10,0,0,1,10,10Z"/><rect class="cls-2" x="104.37" y="146.95" width="16.51" height="16.51" rx="6"/><rect class="cls-2" x="127.3" y="146.95" width="16.51" height="16.51" rx="6"/><rect class="cls-2" x="150.69" y="146.95" width="16.51" height="16.51" rx="6"/><rect class="cls-2" x="173.62" y="146.95" width="16.51" height="16.51" rx="6"/><rect class="cls-2" x="197.47" y="146.95" width="16.51" height="16.51" rx="6"/><rect class="cls-2" x="220.4" y="146.95" width="16.51" height="16.51" rx="6"/><rect class="cls-2" x="104.37" y="173.85" width="16.51" height="16.51" rx="6"/><rect class="cls-2" x="127.3" y="173.85" width="16.51" height="16.51" rx="6"/><rect class="cls-2" x="150.69" y="173.85" width="16.51" height="16.51" rx="6"/><rect class="cls-2" x="173.62" y="173.85" width="16.51" height="16.51" rx="6"/><rect class="cls-2" x="197.47" y="173.85" width="16.51" height="16.51" rx="6"/><rect class="cls-2" x="220.4" y="173.85" width="16.51" height="16.51" rx="6"/><rect class="cls-2" x="104.37" y="200.91" width="16.51" height="16.51" rx="6"/><rect class="cls-2" x="127.3" y="200.91" width="16.51" height="16.51" rx="6"/><rect class="cls-2" x="150.69" y="200.91" width="16.51" height="16.51" rx="6"/><rect class="cls-2" x="173.62" y="200.91" width="16.51" height="16.51" rx="6"/></g></g></svg>