<svg xmlns="http://www.w3.org/2000/svg" viewBox="0 0 339.36 339.36"><defs><style>.cls-1{fill:#f0f0f0;}.cls-2{fill:#5d5c5d;}</style></defs><g id="Слой_2" data-name="Слой 2"><g id="Слой_1-2" data-name="Слой 1"><circle class="cls-1" cx="169.68" cy="169.68" r="169.68"/><path class="cls-2" d="M170.1,242.39l-68-65.77A46.6,46.6,0,0,1,134.87,97H142a35.41,35.41,0,0,1,27.63,13.17A35.32,35.32,0,0,1,197.25,97h7.16a46.61,46.61,0,0,1,33,79.53ZM134.87,112.54a31,31,0,0,0-21.9,53L170,220.67l56.42-55.21a31,31,0,0,0-22.05-52.92h-7.16a19.77,19.77,0,0,0-19.79,18.83H161.9A19.81,19.81,0,0,0,142,112.54Z"/></g></g></svg>