<svg xmlns="http://www.w3.org/2000/svg" viewBox="0 0 339.36 339.36"><defs><style>.cls-1{fill:#f0f0f0;}.cls-2{fill:#5e5d5e;}</style></defs><g id="Слой_2" data-name="Слой 2"><g id="Слой_1-2" data-name="Слой 1"><circle class="cls-1" cx="169.68" cy="169.68" r="169.68"/><path class="cls-2" d="M169.68,88.83a80.86,80.86,0,1,0,80.86,80.86A80.94,80.94,0,0,0,169.68,88.83ZM210,184.69c.43-4.9.65-9.91.65-15s-.22-10.11-.66-15c13.48,4.62,20.56,10.92,20.56,15S223.46,180.07,210,184.69Zm11.39-47.06a107.82,107.82,0,0,0-14.92-4.72A108.9,108.9,0,0,0,201.74,118,61.14,61.14,0,0,1,221.38,137.63Zm-51.7-28.8c4.08,0,10.38,7.08,15,20.56-4.9-.44-9.92-.66-15-.66s-10.1.22-15,.65C159.3,115.91,165.6,108.83,169.68,108.83Zm-60.85,60.86c0-4.09,7.08-10.39,20.56-15-.44,4.9-.66,9.92-.66,15s.22,10.1.65,15C115.91,180.07,108.83,173.77,108.83,169.69ZM118,201.74a108.9,108.9,0,0,0,14.93,4.73,109.19,109.19,0,0,0,4.72,14.92A61.27,61.27,0,0,1,118,201.74Zm14.93-68.83A108.75,108.75,0,0,0,118,137.63,61.24,61.24,0,0,1,137.62,118,108.9,108.9,0,0,0,132.9,132.91Zm15.83,36.78A150.18,150.18,0,0,1,150,150a155.94,155.94,0,0,1,39.41,0,155.94,155.94,0,0,1,0,39.41,155.94,155.94,0,0,1-39.41,0A150,150,0,0,1,148.73,169.69Zm6,40.3c4.9.43,9.92.65,15,.65s10.11-.22,15-.66c-4.62,13.48-10.93,20.56-15,20.56S159.3,223.46,154.68,210Zm47.06,11.4a109.19,109.19,0,0,0,4.72-14.92,107.54,107.54,0,0,0,14.93-4.73A61.17,61.17,0,0,1,201.74,221.39Z"/></g></g></svg>