<svg xmlns="http://www.w3.org/2000/svg" viewBox="0 0 339.36 339.36"><defs><style>.cls-1{fill:#f0f0f0;}.cls-2{fill:#5e5d5e;fill-rule:evenodd;}</style></defs><g id="Слой_2" data-name="Слой 2"><g id="Слой_1-2" data-name="Слой 1"><circle class="cls-1" cx="169.68" cy="169.68" r="169.68"/><path class="cls-2" d="M96.42,159.3q68.34-31.87,91.13-42.23C230.89,97.64,240,94.28,245.86,94.14a9.9,9.9,0,0,1,6.12,2,7.65,7.65,0,0,1,2.22,4.61,26,26,0,0,1,.26,6.58c-2.35,26.56-12.5,91-17.71,120.67-2.21,12.58-6.51,16.78-10.67,17.19-9.11.84-16-6.43-24.74-12.58-13.79-9.65-21.47-15.66-34.88-25.17-15.49-10.9-5.47-16.92,3.38-26.71,2.34-2.51,42.31-41.66,43.09-45.16a3.52,3.52,0,0,0-.78-2.94c-.91-.83-2.21-.56-3.26-.28-1.43.28-23.3,15.94-65.86,46.85-6.25,4.61-11.85,6.85-16.93,6.71-5.59-.14-16.27-3.36-24.34-6.15-9.76-3.36-17.57-5.18-16.92-11.05C85.23,165.59,89.13,162.52,96.42,159.3Z"/></g></g></svg>